<svg xmlns="http://www.w3.org/2000/svg" xmlns:xlink="http://www.w3.org/1999/xlink" width="500" zoomAndPan="magnify" viewBox="0 0 375 374.999991" height="500" preserveAspectRatio="xMidYMid meet" version="1.0"><defs><g/><clipPath id="591ae55742"><path d="M 77.515625 139.085938 L 139.828125 139.085938 L 139.828125 201.394531 L 77.515625 201.394531 Z M 77.515625 139.085938 " clip-rule="nonzero"/></clipPath><clipPath id="0db89989c4"><path d="M 108.671875 139.085938 C 91.464844 139.085938 77.515625 153.035156 77.515625 170.242188 C 77.515625 187.449219 91.464844 201.394531 108.671875 201.394531 C 125.878906 201.394531 139.828125 187.449219 139.828125 170.242188 C 139.828125 153.035156 125.878906 139.085938 108.671875 139.085938 Z M 108.671875 139.085938 " clip-rule="nonzero"/></clipPath><clipPath id="6af2993d34"><path d="M 0.515625 0.0859375 L 62.828125 0.0859375 L 62.828125 62.394531 L 0.515625 62.394531 Z M 0.515625 0.0859375 " clip-rule="nonzero"/></clipPath><clipPath id="e80e431dc5"><path d="M 31.671875 0.0859375 C 14.464844 0.0859375 0.515625 14.035156 0.515625 31.242188 C 0.515625 48.449219 14.464844 62.394531 31.671875 62.394531 C 48.878906 62.394531 62.828125 48.449219 62.828125 31.242188 C 62.828125 14.035156 48.878906 0.0859375 31.671875 0.0859375 Z M 31.671875 0.0859375 " clip-rule="nonzero"/></clipPath><clipPath id="74c2071244"><rect x="0" width="63" y="0" height="63"/></clipPath><clipPath id="016be17c6f"><path d="M 65.269531 141.519531 L 137.269531 141.519531 L 137.269531 242 L 65.269531 242 Z M 65.269531 141.519531 " clip-rule="nonzero"/></clipPath></defs><rect x="-37.5" width="450" fill="#ffffff" y="-37.499999" height="449.999989" fill-opacity="1"/><rect x="-37.5" width="450" fill="#ffffff" y="-37.499999" height="449.999989" fill-opacity="1"/><g fill="#1e3a8a" fill-opacity="1"><g transform="translate(129.895682, 190.105358)"><g><path d="M 4.90625 0 L 4.90625 -42 L 19.40625 -42 L 19.40625 -35.9375 L 19.5625 -35.9375 C 19.675781 -36.15625 19.851562 -36.425781 20.09375 -36.75 C 20.34375 -37.082031 20.875 -37.65625 21.6875 -38.46875 C 22.507812 -39.289062 23.382812 -40.03125 24.3125 -40.6875 C 25.238281 -41.34375 26.4375 -41.925781 27.90625 -42.4375 C 29.382812 -42.957031 30.890625 -43.21875 32.421875 -43.21875 C 34.003906 -43.21875 35.554688 -43 37.078125 -42.5625 C 38.609375 -42.125 39.726562 -41.6875 40.4375 -41.25 L 41.578125 -40.609375 L 35.53125 -28.328125 C 33.726562 -29.847656 31.21875 -30.609375 28 -30.609375 C 26.25 -30.609375 24.742188 -30.226562 23.484375 -29.46875 C 22.234375 -28.707031 21.347656 -27.78125 20.828125 -26.6875 C 20.316406 -25.59375 19.953125 -24.660156 19.734375 -23.890625 C 19.515625 -23.128906 19.40625 -22.535156 19.40625 -22.109375 L 19.40625 0 Z M 4.90625 0 "/></g></g></g><g fill="#1e3a8a" fill-opacity="1"><g transform="translate(163.701332, 190.105358)"><g><path d="M 47.390625 -18.984375 L 16.9375 -18.984375 C 16.9375 -16.046875 17.890625 -13.863281 19.796875 -12.4375 C 21.710938 -11.019531 23.789062 -10.3125 26.03125 -10.3125 C 28.375 -10.3125 30.226562 -10.625 31.59375 -11.25 C 32.957031 -11.882812 34.515625 -13.128906 36.265625 -14.984375 L 46.734375 -9.734375 C 42.367188 -2.421875 35.113281 1.234375 24.96875 1.234375 C 18.632812 1.234375 13.203125 -0.929688 8.671875 -5.265625 C 4.140625 -9.609375 1.875 -14.835938 1.875 -20.953125 C 1.875 -27.066406 4.140625 -32.304688 8.671875 -36.671875 C 13.203125 -41.035156 18.632812 -43.21875 24.96875 -43.21875 C 31.625 -43.21875 37.039062 -41.289062 41.21875 -37.4375 C 45.394531 -33.59375 47.484375 -28.097656 47.484375 -20.953125 C 47.484375 -19.972656 47.453125 -19.316406 47.390625 -18.984375 Z M 17.359375 -27.015625 L 33.3125 -27.015625 C 32.988281 -29.191406 32.128906 -30.867188 30.734375 -32.046875 C 29.347656 -33.222656 27.5625 -33.8125 25.375 -33.8125 C 22.976562 -33.8125 21.066406 -33.179688 19.640625 -31.921875 C 18.222656 -30.671875 17.460938 -29.035156 17.359375 -27.015625 Z M 17.359375 -27.015625 "/></g></g></g><g fill="#1e3a8a" fill-opacity="1"><g transform="translate(206.101804, 190.105358)"><g><path d="M 23.171875 -43.21875 C 25.566406 -43.21875 27.9375 -42.941406 30.28125 -42.390625 C 32.632812 -41.847656 34.382812 -41.304688 35.53125 -40.765625 L 37.25 -39.953125 L 32.5 -30.453125 C 29.226562 -32.203125 26.117188 -33.078125 23.171875 -33.078125 C 21.523438 -33.078125 20.359375 -32.894531 19.671875 -32.53125 C 18.992188 -32.175781 18.65625 -31.507812 18.65625 -30.53125 C 18.65625 -30.3125 18.679688 -30.09375 18.734375 -29.875 C 18.796875 -29.65625 18.90625 -29.453125 19.0625 -29.265625 C 19.226562 -29.078125 19.378906 -28.910156 19.515625 -28.765625 C 19.660156 -28.628906 19.894531 -28.476562 20.21875 -28.3125 C 20.539062 -28.15625 20.796875 -28.035156 20.984375 -27.953125 C 21.179688 -27.867188 21.5 -27.742188 21.9375 -27.578125 C 22.375 -27.421875 22.703125 -27.300781 22.921875 -27.21875 C 23.140625 -27.132812 23.503906 -27.007812 24.015625 -26.84375 C 24.535156 -26.6875 24.9375 -26.578125 25.21875 -26.515625 C 26.90625 -26.023438 28.375 -25.476562 29.625 -24.875 C 30.882812 -24.28125 32.207031 -23.460938 33.59375 -22.421875 C 34.988281 -21.390625 36.066406 -20.082031 36.828125 -18.5 C 37.597656 -16.914062 37.984375 -15.113281 37.984375 -13.09375 C 37.984375 -3.539062 31.351562 1.234375 18.09375 1.234375 C 15.09375 1.234375 12.238281 0.769531 9.53125 -0.15625 C 6.832031 -1.09375 4.882812 -2.023438 3.6875 -2.953125 L 1.875 -4.421875 L 7.78125 -14.328125 C 8.21875 -13.941406 8.789062 -13.488281 9.5 -12.96875 C 10.207031 -12.457031 11.488281 -11.75 13.34375 -10.84375 C 15.195312 -9.945312 16.804688 -9.5 18.171875 -9.5 C 21.171875 -9.5 22.671875 -10.507812 22.671875 -12.53125 C 22.671875 -13.457031 22.289062 -14.175781 21.53125 -14.6875 C 20.769531 -15.207031 19.472656 -15.796875 17.640625 -16.453125 C 15.804688 -17.109375 14.375 -17.707031 13.34375 -18.25 C 10.71875 -19.613281 8.640625 -21.15625 7.109375 -22.875 C 5.585938 -24.59375 4.828125 -26.875 4.828125 -29.71875 C 4.828125 -33.96875 6.476562 -37.28125 9.78125 -39.65625 C 13.082031 -42.03125 17.546875 -43.21875 23.171875 -43.21875 Z M 23.171875 -43.21875 "/></g></g></g><g fill="#1e3a8a" fill-opacity="1"><g transform="translate(239.416319, 190.105358)"><g><path d="M 7.375 -42 L 7.375 -57.625 L 21.859375 -57.625 L 21.859375 -42 L 30.703125 -42 L 30.703125 -30.9375 L 21.859375 -30.9375 L 21.859375 -17.59375 C 21.859375 -13.71875 22.945312 -11.78125 25.125 -11.78125 C 25.675781 -11.78125 26.25 -11.890625 26.84375 -12.109375 C 27.445312 -12.328125 27.910156 -12.546875 28.234375 -12.765625 L 28.734375 -13.09375 L 32.328125 -1.390625 C 29.222656 0.359375 25.675781 1.234375 21.6875 1.234375 C 18.957031 1.234375 16.609375 0.753906 14.640625 -0.203125 C 12.679688 -1.160156 11.195312 -2.441406 10.1875 -4.046875 C 9.175781 -5.660156 8.453125 -7.351562 8.015625 -9.125 C 7.585938 -10.894531 7.375 -12.789062 7.375 -14.8125 L 7.375 -30.9375 L 1.3125 -30.9375 L 1.3125 -42 Z M 7.375 -42 "/></g></g></g><g fill="#1e3a8a" fill-opacity="1"><g transform="translate(264.790856, 190.105358)"><g><path d="M 7.765625 -5.1875 C 3.835938 -9.476562 1.875 -14.734375 1.875 -20.953125 C 1.875 -27.171875 3.835938 -32.4375 7.765625 -36.75 C 11.703125 -41.0625 16.695312 -43.21875 22.75 -43.21875 C 28.320312 -43.21875 32.910156 -41.472656 36.515625 -37.984375 L 36.515625 -42 L 51 -42 L 51 0 L 36.671875 0 L 36.671875 -4.75 L 36.515625 -4.75 C 32.910156 -0.757812 28.320312 1.234375 22.75 1.234375 C 16.695312 1.234375 11.703125 -0.90625 7.765625 -5.1875 Z M 20.09375 -28.078125 C 18.207031 -26.222656 17.265625 -23.847656 17.265625 -20.953125 C 17.265625 -18.066406 18.164062 -15.707031 19.96875 -13.875 C 21.769531 -12.050781 24.144531 -11.140625 27.09375 -11.140625 C 29.9375 -11.140625 32.269531 -12.066406 34.09375 -13.921875 C 35.925781 -15.773438 36.84375 -18.117188 36.84375 -20.953125 C 36.84375 -23.847656 35.898438 -26.222656 34.015625 -28.078125 C 32.128906 -29.929688 29.820312 -30.859375 27.09375 -30.859375 C 24.3125 -30.859375 21.976562 -29.929688 20.09375 -28.078125 Z M 20.09375 -28.078125 "/></g></g></g><g fill="#1e3a8a" fill-opacity="1"><g transform="translate(80.635323, 238.118788)"><g><path d="M 8.765625 -4.921875 C 4.160156 -9.023438 1.859375 -14.285156 1.859375 -20.703125 C 1.859375 -27.117188 4.253906 -32.382812 9.046875 -36.5 C 13.847656 -40.625 19.78125 -42.6875 26.84375 -42.6875 C 33.800781 -42.6875 39.664062 -40.609375 44.4375 -36.453125 C 49.207031 -32.304688 51.59375 -27.050781 51.59375 -20.6875 C 51.59375 -14.332031 49.257812 -9.09375 44.59375 -4.96875 C 39.925781 -0.84375 34.007812 1.21875 26.84375 1.21875 C 19.40625 1.21875 13.378906 -0.828125 8.765625 -4.921875 Z M 19.84375 -27.734375 C 17.988281 -25.898438 17.0625 -23.554688 17.0625 -20.703125 C 17.0625 -17.847656 17.945312 -15.515625 19.71875 -13.703125 C 21.5 -11.898438 23.847656 -11 26.765625 -11 C 29.566406 -11 31.867188 -11.914062 33.671875 -13.75 C 35.484375 -15.582031 36.390625 -17.898438 36.390625 -20.703125 C 36.390625 -23.554688 35.457031 -25.898438 33.59375 -27.734375 C 31.738281 -29.566406 29.460938 -30.484375 26.765625 -30.484375 C 24.015625 -30.484375 21.707031 -29.566406 19.84375 -27.734375 Z M 19.84375 -27.734375 "/></g></g></g><g fill="#1e3a8a" fill-opacity="1"><g transform="translate(127.202244, 238.118788)"><g><path d="M 47.546875 -36.34375 C 51.429688 -32.113281 53.375 -26.925781 53.375 -20.78125 C 53.375 -14.632812 51.429688 -9.429688 47.546875 -5.171875 C 43.660156 -0.910156 38.726562 1.21875 32.75 1.21875 C 27.25 1.21875 22.71875 -0.507812 19.15625 -3.96875 L 19.15625 21.03125 L 4.859375 21.03125 L 4.859375 -41.484375 L 19 -41.484375 L 19 -36.796875 L 19.15625 -36.796875 C 22.71875 -40.722656 27.25 -42.6875 32.75 -42.6875 C 38.726562 -42.6875 43.660156 -40.570312 47.546875 -36.34375 Z M 35.375 -13.75 C 37.238281 -15.582031 38.171875 -17.925781 38.171875 -20.78125 C 38.171875 -23.632812 37.28125 -25.960938 35.5 -27.765625 C 33.71875 -29.578125 31.375 -30.484375 28.46875 -30.484375 C 25.664062 -30.484375 23.359375 -29.566406 21.546875 -27.734375 C 19.742188 -25.898438 18.84375 -23.582031 18.84375 -20.78125 C 18.84375 -17.925781 19.769531 -15.582031 21.625 -13.75 C 23.488281 -11.914062 25.769531 -11 28.46875 -11 C 31.21875 -11 33.519531 -11.914062 35.375 -13.75 Z M 35.375 -13.75 "/></g></g></g><g clip-path="url(#591ae55742)"><g clip-path="url(#0db89989c4)"><g transform="matrix(1, 0, 0, 1, 77, 139)"><g clip-path="url(#74c2071244)"><g clip-path="url(#6af2993d34)"><g clip-path="url(#e80e431dc5)"><path fill="#ffffff" d="M 0.515625 0.0859375 L 62.828125 0.0859375 L 62.828125 62.394531 L 0.515625 62.394531 Z M 0.515625 0.0859375 " fill-opacity="1" fill-rule="nonzero"/></g></g></g></g></g></g><g fill="#1e3a8a" fill-opacity="1"><g transform="translate(181.010075, 204.396155)"><g><path d="M 2.4375 0 L 2.4375 -5.546875 L 0.3125 -5.546875 L 0.3125 -6.296875 L 5.359375 -6.296875 L 5.359375 -5.546875 L 3.234375 -5.546875 L 3.234375 0 Z M 2.4375 0 "/></g></g></g><g fill="#1e3a8a" fill-opacity="1"><g transform="translate(189.78514, 204.396155)"><g><path d="M 0.921875 0 L 0.921875 -6.296875 L 3.328125 -6.296875 C 3.765625 -6.296875 4.144531 -6.210938 4.46875 -6.046875 C 4.789062 -5.890625 5.039062 -5.660156 5.21875 -5.359375 C 5.394531 -5.054688 5.484375 -4.695312 5.484375 -4.28125 C 5.484375 -3.769531 5.351562 -3.347656 5.09375 -3.015625 C 4.832031 -2.679688 4.46875 -2.457031 4 -2.34375 L 5.59375 0 L 4.640625 0 L 3.09375 -2.265625 L 1.703125 -2.265625 L 1.703125 0 Z M 1.703125 -3.015625 L 3.234375 -3.015625 C 3.691406 -3.015625 4.046875 -3.125 4.296875 -3.34375 C 4.554688 -3.5625 4.6875 -3.875 4.6875 -4.28125 C 4.6875 -4.675781 4.554688 -4.984375 4.296875 -5.203125 C 4.046875 -5.429688 3.691406 -5.546875 3.234375 -5.546875 L 1.703125 -5.546875 Z M 1.703125 -3.015625 "/></g></g></g><g fill="#1e3a8a" fill-opacity="1"><g transform="translate(199.019206, 204.396155)"><g><path d="M 0.15625 0 L 2.75 -6.296875 L 3.484375 -6.296875 L 6.078125 0 L 5.234375 0 L 4.640625 -1.4375 L 1.578125 -1.4375 L 1 0 Z M 1.875 -2.171875 L 4.34375 -2.171875 L 3.109375 -5.1875 Z M 1.875 -2.171875 "/></g></g></g><g fill="#1e3a8a" fill-opacity="1"><g transform="translate(208.352274, 204.396155)"><g><path d="M 0.921875 0 L 0.921875 -6.296875 L 1.671875 -6.296875 L 5.140625 -1.375 L 5.140625 -6.296875 L 5.921875 -6.296875 L 5.921875 0 L 5.1875 0 L 1.703125 -4.9375 L 1.703125 0 Z M 0.921875 0 "/></g></g></g><g fill="#1e3a8a" fill-opacity="1"><g transform="translate(218.297349, 204.396155)"><g><path d="M 3.015625 0.109375 C 2.515625 0.109375 2.078125 0.0234375 1.703125 -0.140625 C 1.335938 -0.304688 1.050781 -0.546875 0.84375 -0.859375 C 0.644531 -1.171875 0.546875 -1.53125 0.546875 -1.9375 L 1.328125 -1.9375 C 1.335938 -1.53125 1.5 -1.210938 1.8125 -0.984375 C 2.125 -0.753906 2.523438 -0.640625 3.015625 -0.640625 C 3.460938 -0.640625 3.816406 -0.722656 4.078125 -0.890625 C 4.335938 -1.066406 4.46875 -1.3125 4.46875 -1.625 C 4.46875 -1.914062 4.335938 -2.148438 4.078125 -2.328125 C 3.828125 -2.503906 3.421875 -2.660156 2.859375 -2.796875 C 2.078125 -2.984375 1.503906 -3.222656 1.140625 -3.515625 C 0.785156 -3.804688 0.609375 -4.195312 0.609375 -4.6875 C 0.609375 -5.21875 0.8125 -5.640625 1.21875 -5.953125 C 1.625 -6.265625 2.171875 -6.421875 2.859375 -6.421875 C 3.566406 -6.421875 4.125 -6.242188 4.53125 -5.890625 C 4.945312 -5.535156 5.160156 -5.050781 5.171875 -4.4375 L 4.390625 -4.4375 C 4.378906 -4.8125 4.238281 -5.109375 3.96875 -5.328125 C 3.695312 -5.546875 3.328125 -5.65625 2.859375 -5.65625 C 2.410156 -5.65625 2.054688 -5.566406 1.796875 -5.390625 C 1.546875 -5.210938 1.421875 -4.976562 1.421875 -4.6875 C 1.421875 -4.425781 1.539062 -4.207031 1.78125 -4.03125 C 2.019531 -3.851562 2.441406 -3.6875 3.046875 -3.53125 C 3.847656 -3.332031 4.421875 -3.082031 4.765625 -2.78125 C 5.109375 -2.488281 5.28125 -2.113281 5.28125 -1.65625 C 5.28125 -1.113281 5.070312 -0.679688 4.65625 -0.359375 C 4.25 -0.046875 3.703125 0.109375 3.015625 0.109375 Z M 3.015625 0.109375 "/></g></g></g><g fill="#1e3a8a" fill-opacity="1"><g transform="translate(227.225411, 204.396155)"><g><path d="M 0.921875 0 L 0.921875 -6.296875 L 3.046875 -6.296875 C 3.523438 -6.296875 3.9375 -6.207031 4.28125 -6.03125 C 4.632812 -5.863281 4.90625 -5.617188 5.09375 -5.296875 C 5.289062 -4.984375 5.390625 -4.613281 5.390625 -4.1875 C 5.390625 -3.75 5.289062 -3.375 5.09375 -3.0625 C 4.90625 -2.75 4.632812 -2.503906 4.28125 -2.328125 C 3.9375 -2.148438 3.523438 -2.0625 3.046875 -2.0625 L 1.703125 -2.0625 L 1.703125 0 Z M 1.703125 -2.8125 L 3.03125 -2.8125 C 4.0625 -2.8125 4.578125 -3.265625 4.578125 -4.171875 C 4.578125 -5.085938 4.0625 -5.546875 3.03125 -5.546875 L 1.703125 -5.546875 Z M 1.703125 -2.8125 "/></g></g></g><g fill="#1e3a8a" fill-opacity="1"><g transform="translate(236.081478, 204.396155)"><g><path d="M 3.78125 0.109375 C 3.144531 0.109375 2.578125 -0.0234375 2.078125 -0.296875 C 1.585938 -0.578125 1.203125 -0.960938 0.921875 -1.453125 C 0.648438 -1.953125 0.515625 -2.519531 0.515625 -3.15625 C 0.515625 -3.789062 0.648438 -4.351562 0.921875 -4.84375 C 1.203125 -5.332031 1.585938 -5.71875 2.078125 -6 C 2.578125 -6.28125 3.144531 -6.421875 3.78125 -6.421875 C 4.425781 -6.421875 4.988281 -6.28125 5.46875 -6 C 5.957031 -5.71875 6.34375 -5.332031 6.625 -4.84375 C 6.90625 -4.351562 7.046875 -3.789062 7.046875 -3.15625 C 7.046875 -2.519531 6.90625 -1.953125 6.625 -1.453125 C 6.34375 -0.960938 5.957031 -0.578125 5.46875 -0.296875 C 4.988281 -0.0234375 4.425781 0.109375 3.78125 0.109375 Z M 1.328125 -3.15625 C 1.328125 -2.664062 1.429688 -2.234375 1.640625 -1.859375 C 1.847656 -1.492188 2.132812 -1.203125 2.5 -0.984375 C 2.875 -0.773438 3.300781 -0.671875 3.78125 -0.671875 C 4.269531 -0.671875 4.695312 -0.773438 5.0625 -0.984375 C 5.425781 -1.203125 5.710938 -1.492188 5.921875 -1.859375 C 6.128906 -2.234375 6.234375 -2.664062 6.234375 -3.15625 C 6.234375 -3.644531 6.128906 -4.070312 5.921875 -4.4375 C 5.710938 -4.8125 5.425781 -5.101562 5.0625 -5.3125 C 4.695312 -5.519531 4.269531 -5.625 3.78125 -5.625 C 3.300781 -5.625 2.875 -5.519531 2.5 -5.3125 C 2.132812 -5.101562 1.847656 -4.8125 1.640625 -4.4375 C 1.429688 -4.070312 1.328125 -3.644531 1.328125 -3.15625 Z M 1.328125 -3.15625 "/></g></g></g><g fill="#1e3a8a" fill-opacity="1"><g transform="translate(246.746559, 204.396155)"><g><path d="M 0.921875 0 L 0.921875 -6.296875 L 3.328125 -6.296875 C 3.765625 -6.296875 4.144531 -6.210938 4.46875 -6.046875 C 4.789062 -5.890625 5.039062 -5.660156 5.21875 -5.359375 C 5.394531 -5.054688 5.484375 -4.695312 5.484375 -4.28125 C 5.484375 -3.769531 5.351562 -3.347656 5.09375 -3.015625 C 4.832031 -2.679688 4.46875 -2.457031 4 -2.34375 L 5.59375 0 L 4.640625 0 L 3.09375 -2.265625 L 1.703125 -2.265625 L 1.703125 0 Z M 1.703125 -3.015625 L 3.234375 -3.015625 C 3.691406 -3.015625 4.046875 -3.125 4.296875 -3.34375 C 4.554688 -3.5625 4.6875 -3.875 4.6875 -4.28125 C 4.6875 -4.675781 4.554688 -4.984375 4.296875 -5.203125 C 4.046875 -5.429688 3.691406 -5.546875 3.234375 -5.546875 L 1.703125 -5.546875 Z M 1.703125 -3.015625 "/></g></g></g><g fill="#1e3a8a" fill-opacity="1"><g transform="translate(255.980624, 204.396155)"><g><path d="M 2.4375 0 L 2.4375 -5.546875 L 0.3125 -5.546875 L 0.3125 -6.296875 L 5.359375 -6.296875 L 5.359375 -5.546875 L 3.234375 -5.546875 L 3.234375 0 Z M 2.4375 0 "/></g></g></g><g fill="#1e3a8a" fill-opacity="1"><g transform="translate(264.75569, 204.396155)"><g/></g></g><g fill="#1e3a8a" fill-opacity="1"><g transform="translate(270.092733, 204.396155)"><g><path d="M 0.921875 0 L 0.921875 -6.296875 L 4.53125 -6.296875 L 4.53125 -5.5625 L 1.703125 -5.5625 L 1.703125 -3.390625 L 4.296875 -3.390625 L 4.296875 -2.65625 L 1.703125 -2.65625 L 1.703125 0 Z M 0.921875 0 "/></g></g></g><g fill="#1e3a8a" fill-opacity="1"><g transform="translate(278.219789, 204.396155)"><g><path d="M 0.15625 0 L 2.75 -6.296875 L 3.484375 -6.296875 L 6.078125 0 L 5.234375 0 L 4.640625 -1.4375 L 1.578125 -1.4375 L 1 0 Z M 1.875 -2.171875 L 4.34375 -2.171875 L 3.109375 -5.1875 Z M 1.875 -2.171875 "/></g></g></g><g fill="#1e3a8a" fill-opacity="1"><g transform="translate(287.552857, 204.396155)"><g><path d="M 3.703125 0.109375 C 3.242188 0.109375 2.816406 0.03125 2.421875 -0.125 C 2.035156 -0.289062 1.695312 -0.515625 1.40625 -0.796875 C 1.125 -1.085938 0.90625 -1.429688 0.75 -1.828125 C 0.59375 -2.234375 0.515625 -2.675781 0.515625 -3.15625 C 0.515625 -3.625 0.59375 -4.054688 0.75 -4.453125 C 0.90625 -4.859375 1.125 -5.207031 1.40625 -5.5 C 1.695312 -5.789062 2.035156 -6.015625 2.421875 -6.171875 C 2.816406 -6.335938 3.242188 -6.421875 3.703125 -6.421875 C 4.203125 -6.421875 4.660156 -6.328125 5.078125 -6.140625 C 5.492188 -5.960938 5.847656 -5.703125 6.140625 -5.359375 C 6.441406 -5.015625 6.660156 -4.613281 6.796875 -4.15625 L 5.953125 -4.15625 C 5.796875 -4.613281 5.515625 -4.972656 5.109375 -5.234375 C 4.710938 -5.492188 4.253906 -5.625 3.734375 -5.625 C 3.265625 -5.625 2.847656 -5.519531 2.484375 -5.3125 C 2.128906 -5.101562 1.847656 -4.8125 1.640625 -4.4375 C 1.429688 -4.0625 1.328125 -3.632812 1.328125 -3.15625 C 1.328125 -2.664062 1.429688 -2.234375 1.640625 -1.859375 C 1.847656 -1.492188 2.128906 -1.203125 2.484375 -0.984375 C 2.847656 -0.773438 3.265625 -0.671875 3.734375 -0.671875 C 4.265625 -0.671875 4.738281 -0.804688 5.15625 -1.078125 C 5.570312 -1.359375 5.859375 -1.738281 6.015625 -2.21875 L 6.859375 -2.21875 C 6.734375 -1.75 6.519531 -1.335938 6.21875 -0.984375 C 5.914062 -0.640625 5.546875 -0.367188 5.109375 -0.171875 C 4.679688 0.015625 4.210938 0.109375 3.703125 0.109375 Z M 3.703125 0.109375 "/></g></g></g><g fill="#1e3a8a" fill-opacity="1"><g transform="translate(298.00193, 204.396155)"><g><path d="M 0.921875 0 L 0.921875 -6.296875 L 1.703125 -6.296875 L 1.703125 0 Z M 0.921875 0 "/></g></g></g><g fill="#1e3a8a" fill-opacity="1"><g transform="translate(303.734973, 204.396155)"><g><path d="M 0.921875 0 L 0.921875 -6.296875 L 1.703125 -6.296875 L 1.703125 -0.75 L 4.765625 -0.75 L 4.765625 0 Z M 0.921875 0 "/></g></g></g><g fill="#1e3a8a" fill-opacity="1"><g transform="translate(311.889026, 204.396155)"><g><path d="M 0.921875 0 L 0.921875 -6.296875 L 4.75 -6.296875 L 4.75 -5.5625 L 1.703125 -5.5625 L 1.703125 -3.578125 L 4.515625 -3.578125 L 4.515625 -2.84375 L 1.703125 -2.84375 L 1.703125 -0.734375 L 4.84375 -0.734375 L 4.84375 0 Z M 0.921875 0 "/></g></g></g><g clip-path="url(#016be17c6f)"><path fill="#15803d" d="M 137.335938 170.121094 C 137.375 185.972656 124.492188 198.878906 108.652344 198.878906 L 93.03125 198.878906 C 86.253906 198.878906 80.761719 204.371094 80.761719 211.144531 L 80.761719 226.933594 L 65.832031 241.867188 L 65.832031 215.007812 C 65.832031 197.855469 79.738281 183.949219 96.894531 183.949219 L 108.65625 183.949219 C 116.21875 183.949219 122.378906 177.8125 122.410156 170.253906 C 122.441406 162.660156 116.164062 156.445312 108.566406 156.445312 L 80.207031 156.445312 L 65.277344 141.519531 L 108.519531 141.519531 C 124.351562 141.519531 137.296875 154.292969 137.335938 170.121094 Z M 137.335938 170.121094 " fill-opacity="1" fill-rule="nonzero"/></g></svg>